PathFileType	4	(X/Y/Z)	C:\Users\Basilio\Documents\Thesis Gigler\squatting_fais\c3dfiles\077\SLS_back_pre1\markers_experimental.trc
DataRate	CameraRate	NumFrames	NumMarkers	Units	OrigDataRate	OrigDataStartFrame	OrigNumFrames
200.000000	200.000000	4	60	mm	200.000000	1389	1588
Frame#	Time	FHD			RBHD			C7			T10			CLAV			LSHO			LUUPA			LMUPA			LDUPA			LLEP			LMEP			LRAD			LUL			LRFIN			RSHO			RUPA1			RMUPA			RDUPA			RLEP			RMEP			RRAD			RUL			RUFIN			LASI			RASI			USACR			LSACR			RSACR			LTHI1			LTHI2			LTHI3			LTHI4			LLFC			LMFC			LTIB1			LTIB2			LTIB3			LTIB4			LLMAL			LHEE			LMT1			LMT2			LMT5			RTHI			RTHI2			RTHI3			RTHI4			RLFC			RMFC			RTIB1			RTIB2			RTIB3			RTIB4			RLMAL			RMMAL			RHEE			RMT1			RMT2			RMT5			LBHD			
		X1	Y1	Z1	X2	Y2	Z2	X3	Y3	Z3	X4	Y4	Z4	X5	Y5	Z5	X6	Y6	Z6	X7	Y7	Z7	X8	Y8	Z8	X9	Y9	Z9	X10	Y10	Z10	X11	Y11	Z11	X12	Y12	Z12	X13	Y13	Z13	X14	Y14	Z14	X15	Y15	Z15	X16	Y16	Z16	X17	Y17	Z17	X18	Y18	Z18	X19	Y19	Z19	X20	Y20	Z20	X21	Y21	Z21	X22	Y22	Z22	X23	Y23	Z23	X24	Y24	Z24	X25	Y25	Z25	X26	Y26	Z26	X27	Y27	Z27	X28	Y28	Z28	X29	Y29	Z29	X30	Y30	Z30	X31	Y31	Z31	X32	Y32	Z32	X33	Y33	Z33	X34	Y34	Z34	X35	Y35	Z35	X36	Y36	Z36	X37	Y37	Z37	X38	Y38	Z38	X39	Y39	Z39	X40	Y40	Z40	X41	Y41	Z41	X42	Y42	Z42	X43	Y43	Z43	X44	Y44	Z44	X45	Y45	Z45	X46	Y46	Z46	X47	Y47	Z47	X48	Y48	Z48	X49	Y49	Z49	X50	Y50	Z50	X51	Y51	Z51	X52	Y52	Z52	X53	Y53	Z53	X54	Y54	Z54	X55	Y55	Z55	X56	Y56	Z56	X57	Y57	Z57	X58	Y58	Z58	X59	Y59	Z59	X60	Y60	Z60	

1390	6.945	-177.628890991211	1859.033081054688	-1100.04931640625	-325.8061218261719	1747.773193359375	-1023.725036621094	-366.8389892578126	1605.045288085938	-1101.188720703125	-385.3077392578126	1279.144897460938	-1063.860961914063	-201.8780517578126	1559.965454101563	-1099.19140625	-232.9154052734376	1577.956298828125	-1276.351196289063	-73.26161193847658	1497.072631835938	-1378.006225585938	-39.8608512878418	1526.427734375	-1355.64111328125	-5.407607078552247	1485.852783203125	-1385.830200195313	59.57541275024415	1488.188720703125	-1384.34814453125	59.69839096069337	1421.082763671875	-1348.094848632813	350.7874145507813	1509.102783203125	-1260.8623046875	357.7578735351563	1501.051147460938	-1340.557983398438	450.1627807617189	1523.609497070313	-1271.67529296875	-210.7604980468751	1598.78857421875	-933.2474365234377	-58.64376068115236	1537.596801757813	-820.5952148437502	-27.62169456481934	1561.2734375	-851.2919921875002	10.78445720672608	1529.245971679688	-815.5945434570315	77.30816650390626	1526.013793945313	-822.7774047851565	73.41338348388673	1452.71435546875	-852.452575683594	355.2134094238282	1528.136352539063	-945.373229980469	371.4873352050782	1533.541748046875	-864.5749511718752	449.7483825683595	1548.87548828125	-947.889831542969	-219.190170288086	1056.808837890625	-1185.279907226563	-214.4891204833985	1091.82421875	-908.3140869140627	-404.7419433593751	1180.489990234375	-1051.32470703125	-414.6402893066407	1151.105712890625	-1078.91552734375	-416.6738281250001	1150.31201171875	-1023.290832519531	-298.9583435058594	850.3769531250002	-1225.510864257813	-270.8522949218751	771.2849121093752	-1221.7451171875	-222.9488983154297	772.025817871094	-1224.501953125	-296.2312927246094	722.3547363281251	-1197.750610351563	-270.0515747070313	573.5169067382814	-1170.062377929688	-245.1709899902344	560.7785644531251	-1038.141723632813	-249.8814849853516	354.0153198242188	-1084.074462890625	-289.5204162597657	306.3762817382813	-1148.49560546875	-256.5453186035157	303.6020507812501	-1115.351806640625	-268.0943298339844	229.3863677978516	-1076.483520507813	-343.6730041503907	113.6462478637696	-1102.564453125	-398.6158752441407	85.52428436279298	-1047.078979492188	-189.8264617919922	55.48448181152345	-1029.29443359375	-182.8846130371094	56.88828277587892	-1071.7900390625	-311.6200561523438	132.3765563964844	-1022.424377441406	-207.5514526367188	784.5434570312502	-804.3604125976565	-150.8667297363282	747.2482299804689	-798.4688110351565	-119.7428894042969	757.3267211914064	-804.103210449219	-153.5784912109375	662.7523193359376	-804.217956542969	-157.7424926757813	609.3085937500001	-801.591491699219	-122.104118347168	574.4951782226564	-917.9844970703127	-185.9358673095703	470.7964782714845	-801.6208496093752	-289.0975036621094	444.3448181152345	-785.025329589844	-253.0081329345704	415.1938476562501	-795.1113281250002	-266.0005493164063	370.7391052246094	-833.099304199219	-427.7072753906251	261.9260253906251	-806.1127929687502	-385.1887817382814	243.4920196533204	-885.3674926757815	-493.4515991210939	239.8439331054688	-872.0362548828127	-295.7785339355469	149.0522766113282	-809.223327636719	-305.6097412109376	159.9973754882813	-772.707214355469	-340.0195922851563	155.4619750976563	-730.5267333984376	-320.1364746093751	1753.52392578125	-1170.132568359375	
1391	6.95	-177.8107147216797	1859.309204101563	-1100.003662109375	-325.8957214355469	1747.865600585938	-1023.687316894531	-367.0030212402344	1605.152954101563	-1101.027221679688	-385.4968261718751	1279.231323242188	-1063.831787109375	-202.0218811035157	1560.017578125	-1099.115478515625	-233.2432708740235	1577.787841796875	-1276.448486328125	-73.93154907226564	1495.353149414063	-1378.150634765625	-40.37635803222657	1524.81298828125	-1356.026489257813	-6.580729961395265	1483.992919921875	-1386.330810546875	59.50704193115236	1485.645141601563	-1384.686279296875	58.50376510620119	1418.741088867188	-1348.322875976563	350.1932678222657	1505.680908203125	-1261.025390625	356.8529968261719	1497.424560546875	-1340.7451171875	449.5260314941407	1520.075317382813	-1271.485595703125	-210.8670043945313	1598.59814453125	-933.0178222656252	-59.06310653686525	1536.436645507813	-820.1323852539065	-27.94951057434083	1559.90185546875	-850.5260009765627	10.27378940582276	1527.57666015625	-814.9033203125002	76.77710723876955	1524.02978515625	-821.823425292969	72.42807006835939	1450.707397460938	-851.6687011718752	354.4988403320313	1524.257446289063	-944.2564086914065	370.7953186035157	1530.026000976563	-863.9749145507815	449.0382080078126	1545.205810546875	-947.313659667969	-219.3206787109376	1056.7646484375	-1185.018188476563	-214.4745025634766	1092.20849609375	-908.1030273437502	-404.8846130371095	1180.454833984375	-1051.212890625	-414.7835998535157	1150.975708007813	-1078.82421875	-416.8293762207032	1150.300903320313	-1023.20703125	-298.9950256347657	850.2956542968752	-1225.184814453125	-270.8656921386719	770.8397216796877	-1221.739013671875	-223.0336303710938	772.0181274414065	-1224.110107421875	-296.2181701660157	722.2841186523439	-1197.534790039063	-270.1185607910157	573.6193237304689	-1169.8212890625	-245.1345672607422	560.8372802734376	-1037.901000976563	-249.9281768798829	353.9837036132813	-1083.773193359375	-289.5236511230469	306.3848571777344	-1148.190307617188	-256.5256652832032	303.4487915039063	-1115.08251953125	-268.2372436523438	229.2462921142579	-1076.321044921875	-343.5117797851563	113.4780426025391	-1102.411499023438	-398.6133728027345	85.52597045898439	-1046.943237304688	-189.1141357421875	55.32588577270509	-1029.020141601563	-182.7712707519532	56.86190414428712	-1071.693359375	-311.6389770507813	132.2802886962891	-1022.202575683594	-208.107406616211	784.6953125000002	-804.0139770507815	-151.4749298095703	747.3148193359376	-797.957214355469	-120.3190460205078	757.4140625000001	-803.6904907226565	-154.5078430175782	662.7617797851564	-803.6358032226565	-158.3379058837891	608.9461059570314	-800.628601074219	-121.7156600952149	574.0805053710939	-916.7840576171877	-184.8468780517578	469.8056030273439	-800.4023437500002	-287.4222717285157	442.0078430175782	-782.8221435546877	-250.8742065429688	413.6564941406251	-792.8355712890627	-263.2724914550782	368.6940002441407	-830.5159301757815	-423.6677856445314	257.8778686523438	-802.2754516601565	-381.4270629882813	239.8672637939454	-881.736755371094	-489.6464843750001	234.8719940185547	-867.862731933594	-290.3793945312501	146.4581604003907	-806.1070556640627	-300.0146789550782	157.6064910888672	-769.428405761719	-334.3296813964844	152.6586151123047	-727.1879882812501	-320.2157897949219	1754.018798828125	-1170.099731445313	
1392	6.955	-177.6999664306641	1859.22412109375	-1099.872192382813	-325.9363098144532	1747.97021484375	-1023.559326171875	-367.2282714843751	1605.313232421875	-1100.930541992188	-385.6330871582032	1279.3623046875	-1063.8212890625	-202.1948852539063	1560.070434570313	-1099.048461914063	-233.4755096435547	1577.617553710938	-1276.5390625	-74.67101287841798	1493.686889648438	-1378.321166992188	-41.82889556884766	1523.256713867188	-1356.814331054688	-7.495568275451662	1482.017944335938	-1386.708618164063	58.05768966674806	1483.464477539063	-1385.570434570313	57.39648056030275	1416.498901367188	-1348.790405273438	349.1737670898438	1502.1611328125	-1261.174438476563	356.1007690429688	1493.642211914063	-1340.93603515625	448.9331054687501	1515.651245117188	-1271.562744140625	-210.9735717773438	1598.388671875	-932.6645507812502	-59.52020263671876	1534.826782226563	-819.552185058594	-28.32755661010743	1558.166748046875	-850.0289306640627	9.574640274047853	1525.677612304688	-814.233337402344	76.04526519775392	1521.7900390625	-820.9644775390627	71.43367767333986	1448.551635742188	-850.8533935546877	353.8254089355469	1520.777587890625	-943.8140869140627	369.7850646972657	1526.020141601563	-863.8128662109377	448.3096313476564	1541.41259765625	-946.3930664062502	-219.3416595458985	1056.6494140625	-1184.761474609375	-214.4384460449219	1092.584106445313	-907.954284667969	-405.0272521972657	1180.5185546875	-1051.118408203125	-414.9277648925782	1150.921630859375	-1078.736450195313	-416.9627380371095	1150.298583984375	-1023.039855957031	-299.0072326660157	850.249206542969	-1224.835571289063	-270.8466491699219	771.0059204101565	-1221.128173828125	-223.0153808593751	771.973571777344	-1223.793701171875	-296.2258911132813	722.2111206054689	-1197.22705078125	-270.2010192871094	573.6118164062501	-1169.522216796875	-245.2998352050782	560.8572998046876	-1037.549438476563	-249.9740295410157	354.0694580078126	-1083.471069335938	-289.3130187988282	306.3030700683594	-1147.993896484375	-256.5178833007813	303.6346435546876	-1114.66259765625	-268.5434265136719	229.1485443115235	-1076.198974609375	-343.5093078613282	113.4095840454102	-1102.164184570313	-398.5989685058595	85.46384429931642	-1046.831787109375	-189.8390502929688	55.37469482421876	-1029.196411132813	-182.7208251953125	56.84055709838869	-1071.62451171875	-311.6776733398438	132.2015533447266	-1021.950805664063	-208.7127075195313	784.8731079101565	-803.7182617187502	-152.3363189697266	747.0381469726564	-797.6143188476565	-121.0416793823242	757.2675170898439	-803.3771972656252	-155.3487091064453	662.7903442382814	-803.1712036132815	-158.8968963623047	608.6192626953126	-799.580749511719	-123.5474395751953	574.2121582031251	-916.097839355469	-183.4661254882813	469.4385681152345	-798.6505126953127	-285.7949523925782	440.2636108398439	-780.4212646484377	-249.0182189941407	411.9677734375001	-790.5585937500002	-260.9786987304688	367.1206970214844	-828.140075683594	-419.7337341308595	253.971664428711	-798.626159667969	-377.1591186523438	236.1320800781251	-878.1316528320315	-485.7364196777345	230.0142211914063	-863.4798583984377	-285.9536132812501	144.3477172851563	-803.6604614257815	-294.4647827148438	155.235580444336	-766.3088378906251	-328.2939453125001	149.9983062744141	-723.7274780273439	-320.3236083984376	1754.128540039063	-1169.972900390625	
1393	6.96	-177.9551544189453	1859.558227539063	-1099.739501953125	-326.0648193359376	1748.103515625	-1023.3935546875	-367.3957519531251	1605.388305664063	-1100.763671875	-385.7858276367189	1279.4150390625	-1063.800170898438	-202.3695526123047	1560.0830078125	-1098.960205078125	-233.6979217529297	1577.538696289063	-1276.625610351563	-75.12612915039064	1491.896240234375	-1378.471801757813	-41.57249069213868	1521.296875	-1356.884765625	-8.567143440246584	1479.913696289063	-1387.111083984375	57.4122657775879	1481.090698242188	-1386.124633789063	56.47326660156251	1414.01904296875	-1350.688110351563	347.9276733398438	1498.542358398438	-1261.442016601563	354.9616088867188	1489.852416992188	-1341.154541015625	447.7259216308595	1512.022583007813	-1271.782348632813	-211.1283264160157	1598.099975585938	-932.3547363281252	-60.20971298217775	1533.453735351563	-818.959411621094	-28.65575408935548	1556.7080078125	-849.1709594726565	9.005031585693361	1523.932983398438	-813.424987792969	75.48789215087892	1519.43359375	-819.8295898437502	70.34263610839845	1445.933715820313	-849.9940185546877	352.9288940429688	1517.072631835938	-943.1040039062502	369.0415039062501	1522.038818359375	-863.2354736328127	447.4979553222657	1537.415283203125	-945.918395996094	-219.601791381836	1056.516845703125	-1184.500732421875	-214.4947967529297	1092.792358398438	-907.7366943359377	-405.0952148437501	1180.5	-1051.065795898438	-415.027557373047	1150.877319335938	-1078.5517578125	-417.0554809570314	1150.257446289063	-1022.884033203125	-299.0343017578126	850.2535400390627	-1224.584228515625	-270.7933044433594	770.679138183594	-1221.089233398438	-222.9485473632813	771.8389892578127	-1223.514038085938	-296.0561523437501	722.0377807617189	-1196.832397460938	-270.2780761718751	573.5989379882814	-1169.185546875	-244.1434478759766	561.8446655273439	-1038.178588867188	-250.0262908935547	353.9994506835938	-1083.20458984375	-289.6149597167969	306.1751098632813	-1147.58740234375	-256.5608520507813	303.8892517089844	-1114.321899414063	-268.4859008789063	229.0794525146485	-1075.895874023438	-343.5323791503907	113.4673004150391	-1102.002075195313	-398.5946044921876	85.44953918457033	-1046.676147460938	-189.8349151611328	55.31159973144533	-1029.14111328125	-182.7098541259766	56.86875915527345	-1071.604125976563	-311.8062133789063	132.4333190917969	-1021.885559082031	-209.2932891845704	784.8941040039065	-803.3731689453127	-153.1478118896485	746.8510131835939	-797.285339355469	-121.7207565307617	757.0875854492189	-802.9696044921877	-156.3463745117188	662.6665649414064	-802.7222900390627	-159.5098876953125	608.4678955078126	-798.7114257812502	-123.6176223754883	573.7520751953126	-915.1519165039065	-182.3976287841797	468.6902465820314	-797.1225585937502	-284.0816040039063	438.2522583007814	-778.1075439453127	-247.0309143066407	410.5182189941407	-788.5137939453127	-259.0591735839844	365.4743347167969	-826.1678466796877	-415.697723388672	250.0813598632813	-794.8175048828127	-373.3126525878907	232.7382965087891	-874.5862426757815	-482.1710205078126	224.9551391601563	-859.3970947265627	-279.9525146484376	141.8560485839844	-800.0505981445315	-289.1156005859376	152.8476257324219	-763.3090209960939	-322.6242675781251	147.6828002929688	-720.4291992187501	-320.2816467285157	1754.173950195313	-1169.869873046875	
